<?xml version="1.0" encoding="UTF-8" standalone="no"?><!DOCTYPE svg PUBLIC "-//W3C//DTD SVG 1.1//EN" "http://www.w3.org/Graphics/SVG/1.1/DTD/svg11.dtd"><svg width="100%" height="100%" viewBox="0 0 500 500" version="1.1" xmlns="http://www.w3.org/2000/svg" xmlns:xlink="http://www.w3.org/1999/xlink" xml:space="preserve" xmlns:serif="http://www.serif.com/" style="fill-rule:evenodd;clip-rule:evenodd;stroke-linejoin:round;stroke-miterlimit:1.41421;"><rect id="Plan-de-travail1" serif:id="Plan de travail1" x="0" y="0" width="500" height="500" style="fill:none;"/><path d="M250,31.55c120.579,0 218.473,97.884 218.473,218.45c0,120.566 -97.894,218.45 -218.473,218.45c-120.579,0 -218.473,-97.884 -218.473,-218.45c0,-120.566 97.894,-218.45 218.473,-218.45Zm-0.914,58.467c88.306,0 160,71.686 160,159.983c0,88.297 -71.694,159.983 -160,159.983c-88.306,0 -160,-71.686 -160,-159.983c0,-88.297 71.694,-159.983 160,-159.983Z" style="fill:#3c4858;"/><ellipse cx="250" cy="249.893" rx="95.741" ry="95.731" style="fill:#3c4858;"/></svg>